<svg xmlns="http://www.w3.org/2000/svg" viewBox="0 0 53.79 90.03"><defs><style>.cls-1{fill:#262626;}.cls-2{fill:#fff;}.cls-3{fill:#cdcccc;}.cls-4{fill:#f4991d;}.cls-5{fill:#fdc907;}</style></defs><g id="Capa_2" data-name="Capa 2"><g id="Capa_1-2" data-name="Capa 1"><path class="cls-1" d="M16.51,82.52A23.62,23.62,0,0,1,0,89.09C11.31,83.59,12.3,73.8,11.37,63.2c-1.29-14.6-2.3-29.18,1-43.68a40.75,40.75,0,0,1,3.44-9.84c6-11.53,17.1-12.88,25.81-3.22C38,9.71,33.31,22.81,30.41,28.23c-3.85,7.2-2.7,14.85-2.08,22.48C28.93,58,19.73,79.72,16.51,82.52Z"/><path class="cls-2" d="M36,16c2.46,9.49,11.64,26,11.68,36,0,8.89-5,18.71-10.85,23.18-1.6,1.22-3.28,1.76-3.67,3.73-1.86.66-3.1,1.18-5.17,1.87-2.71.91-4.82.49-5.18,1.48-.14.39-.06,1.07,1.15,2.31-2.29,2-1,1.85-3.93,1.62,0-1.67-1.7-2.86-3.48-3.63,5.65-7.07,10.75-25.84,10.37-32.81-.33-6-1.35-11.94.5-17.82A34.91,34.91,0,0,1,29,27.76c2-4.37,3.37-8,4.4-10.42"/><path class="cls-3" d="M27.41,80.74c-1.39-1.07,2.53-2,4-3.21,2.57-2.13,20.15-11.36,14-33-1.1-3.87-7.81-22.8-8.79-25.44,0,0-.89-.58.19,0l.08.05c.35.18.42,0,.55.38,3,9,7.36,17.92,10.2,27.13,3.5,11.37-1,19.78-8,29.29-1,1.55-.07,5.62-3.42,5-.59-.1-1.88-2-2.46-2.15C32.69,78.59,28.12,81.2,27.41,80.74Z"/><path d="M41.63,6.46C43,8,45.25,7.57,47.57,7.82a9,9,0,0,1,6.22,2.74c-8.29-1.15-12.53,3.56-16.37,9-1,0-2.5-.48-3.47-.52-1.83-.14-7.35-2.27-8.3-2.78C24,15.32,18.88,2.8,24.62.93,29.13-.54,30.79,0,33,.61a18,18,0,0,1,8.6,5.85"/><path class="cls-4" d="M18,84.2a14.21,14.21,0,0,1,7.24-1.94,1.14,1.14,0,0,1,.41.07,18.2,18.2,0,0,1,8.05,6.07,1,1,0,0,1-1,1.61,55.27,55.27,0,0,0-14.17-1.55c-3.33.11-1.19-2-1-3.46A1.12,1.12,0,0,1,18,84.2Z"/><path class="cls-5" d="M34,19a7.36,7.36,0,0,1-2.34-.16c-2.11-.49-4.38-1.08-6-2.62-1.91-2.11-1-6.5,1.53-6.81,3.19-.4,2.12,5,3.55,7.32A6.33,6.33,0,0,0,34,19"/><path class="cls-2" d="M22.28,74.82,20,66.16c-.32-1.21-.58-2.45-.78-3.69l-1.1-7a32.36,32.36,0,0,1-.4-5.1V34.21l.24,1.24a21.22,21.22,0,0,1,.35,3.28L18.41,44l-.08,6.44a30.83,30.83,0,0,0,.34,5.08l1.09,7.33c.15,1,.33,2,.55,3Z"/><path class="cls-4" d="M34.76,79.73A13.46,13.46,0,0,1,37.32,79a8.1,8.1,0,0,1,5.23.84,19.29,19.29,0,0,1,5.83,5.06,1,1,0,0,1-1,1.61A55.32,55.32,0,0,0,33.22,85c-2.7.09-1.81-1.31-1.27-2.6A4.89,4.89,0,0,1,34.76,79.73Z"/></g></g></svg>