<svg xmlns="http://www.w3.org/2000/svg" viewBox="0 0 39.57 67.42"><defs><style>.cls-1{fill:#1a1819;}</style></defs><g id="Capa_2" data-name="Capa 2"><g id="Capa_1-2" data-name="Capa 1"><path class="cls-1" d="M28.38,6.46C30.71,4.17,33.65,3,36.66,1.88c-3.36.18-6.47,1.5-9.78,2,.17-.65.7-.75,1.12-.95,3.54-1.67,7.32-1.73,11.57-1.42a4,4,0,0,0-3.14-1C32.69.47,28.94,1,25.2.29,18.81-.86,14.46,1.44,11.65,7.49l-.05.09C10.43,9.8,9.51,14,8.94,16.51,6.55,27,7.28,37.51,8.21,48.05c.67,7.65,0,14.72-8.21,18.69A17,17,0,0,0,11.92,62c.87-.75,2.35-3.44,3.84-6.78l-1.33-5a27,27,0,0,1-.57-2.67l-.79-5.06a22.73,22.73,0,0,1-.29-3.68V27.11L13,28a14.43,14.43,0,0,1,.25,2.37l.09,3.79-.06,4.65a23.87,23.87,0,0,0,.25,3.68l.79,5.29c.11.71.24,1.43.39,2.14l1.14,5.19c2.46-5.54,4.92-12.84,4.66-16.09-.45-5.51-2.4-11.1.38-16.3,1.3-2.42-1.41-7.72-2.62-11.7a6.26,6.26,0,0,1-2.54-.68C13.8,9.24,13.16,5.8,14.73,5c2-1,2.86,3.19,4.47,4.57a5.9,5.9,0,0,0,3.13,1h0a5.64,5.64,0,0,1,2.53.32,2.12,2.12,0,0,0,.59.15c1.71,5.25,6.63,21.1,7.32,23.55C37.2,50.19,31.35,59,29.31,60.24c-3.75,2.35-14.75,1.3-14.22,2a7.26,7.26,0,0,0-2.08,1,.81.81,0,0,0-.34.58c-.14,1-1.68,2.57.73,2.49A40.28,40.28,0,0,1,23.63,67.4a.72.72,0,0,0,.71-1.16,13,13,0,0,0-5.5-3.81c1.24,0,2.66,0,4.05-.11-.34.79-.57,1.52,1.1,1.47A39.69,39.69,0,0,1,34.21,64.9a.72.72,0,0,0,.72-1.16,14.36,14.36,0,0,0-3.88-3.45c5.86-4.89,5.66-16.66,3.33-24.2-1.94-6.31-6.19-18.47-8.5-25.25a1.54,1.54,0,0,0,.2-.6A6.87,6.87,0,0,1,28.38,6.46Z"/></g></g></svg>