<svg xmlns="http://www.w3.org/2000/svg" viewBox="0 0 53.79 90.03"><defs><style>.cls-1{fill:#262626;}</style></defs><g id="Capa_2" data-name="Capa 2"><g id="Capa_1-2" data-name="Capa 1"><path class="cls-1" d="M25.66,82.33a1.14,1.14,0,0,0-.41-.07A14.21,14.21,0,0,0,18,84.2a1.12,1.12,0,0,0-.46.8c-.19,1.41-2.33,3.57,1,3.46A55.27,55.27,0,0,1,32.72,90a1,1,0,0,0,1-1.61A18.2,18.2,0,0,0,25.66,82.33Z"/><path class="cls-1" d="M53.79,10.56a9,9,0,0,0-6.22-2.74C45.25,7.57,43,8,41.63,6.45h0A18,18,0,0,0,33,.61C32.67.5,32.3.41,31.94.33A9.75,9.75,0,0,0,28.17.08,12.12,12.12,0,0,0,24.7.91l-.08,0a4.15,4.15,0,0,0-.64.29c-3.15,1.47-6,4.3-8.16,8.46a40.6,40.6,0,0,0-3.44,9.84c-3.31,14.5-2.3,29.08-1,43.68C12.3,73.8,11.31,83.59,0,89.08a23.61,23.61,0,0,0,16.51-6.56c1.21-1.06,3.26-4.78,5.32-9.4l-1.85-7c-.32-1.21-.58-2.45-.78-3.69l-1.1-7a32.4,32.4,0,0,1-.4-5.11V34.21l.24,1.24a21.22,21.22,0,0,1,.35,3.28L18.41,44l-.08,6.45a30.83,30.83,0,0,0,.34,5.08l1.09,7.33c.15,1,.33,2,.55,3L21.88,73c3.41-7.68,5.38-17.37,5-21.88-.63-7.62-2-15.49,1.85-22.68,1.15-2.16,2.46-5.91,4-9.4-.61,0,.59.14,0,0-2.11-.49-4.38-1.07-6-2.61-1.91-2.12-1-6.51,1.53-6.82,3.19-.4,2.12,5,3.55,7.32a6.64,6.64,0,0,0,2.74,2.13c.67.1,1.44.27,2.11.37C38,23,44.33,40.81,45.39,44.56c6.13,21.61-11.45,30.84-14,33-1.43,1.17-5.35,2.14-4,3.21.71.46,5.28-2.15,6.36-1.94a3.14,3.14,0,0,1,1.07.9l-.08,0A4.89,4.89,0,0,0,32,82.4c-.54,1.29-1.43,2.69,1.27,2.6a55.32,55.32,0,0,1,14.17,1.55,1,1,0,0,0,1-1.61,19.29,19.29,0,0,0-5.83-5.06,7.89,7.89,0,0,0-3.65-.94,10.93,10.93,0,0,1,.75-3c7-9.51,11.47-17.92,8-29.29-2.84-9.21-7.16-18.14-10.2-27.13C41.26,14.12,45.5,9.41,53.79,10.56Z"/></g></g></svg>