<svg xmlns="http://www.w3.org/2000/svg" viewBox="0 0 39.57 67.42"><defs><style>.cls-1{fill:#1a1819;}.cls-2{fill:#fff;}.cls-3{fill:#767568;}.cls-4{fill:#ffcc03;}.cls-5{fill:#ec663b;}</style></defs><g id="Capa_2" data-name="Capa 2"><g id="Capa_1-2" data-name="Capa 1"><path class="cls-1" d="M25.1,60a9.92,9.92,0,0,1,1.85-.5,5.81,5.81,0,0,1,3.77.61,14,14,0,0,1,4.21,3.65.72.72,0,0,1-.72,1.16A40.15,40.15,0,0,0,24,63.78c-2,.07-1.31-.94-.92-1.87A3.57,3.57,0,0,1,25.1,60Z"/><path class="cls-2" d="M25.48,10.41c.47,1.77,6.75,21.5,8.92,29.52,2.22,8.24-.36,17.71-4.6,20.93-1.15.88-7.69,1.18-9.26,1.3-2.35.17-4-.35-4.12,0s0,.39.85,1.28c-1.65,1.46-.73,1.34-2.84,1.17,0-1.2-1.22-2.06-2.51-2.62,4.08-5.1,7.76-18.65,7.49-23.69-.24-4.3-1.76-9.42-.42-13.67.32-1,1.17-3.28,1-4.33-1.38-7.54-3.27-9-2.52-10.66"/><path class="cls-1" d="M13,63.21a6.29,6.29,0,0,1,4-1.19c.1,0,1,.11,1.09.14a13.57,13.57,0,0,1,6.2,4.08.72.72,0,0,1-.71,1.16A40.28,40.28,0,0,0,13.4,66.28c-2.41.08-.87-1.47-.73-2.49A.81.81,0,0,1,13,63.21Z"/><path class="cls-3" d="M15.12,62.27c-1-.77,10.37.37,14.19-2,2-1.28,7.89-10.05,3.46-25.65C32,31.79,25.64,11.4,24.93,9.5c0,0-.65-.42.13,0l.06,0c.25.14.31,0,.4.28,2.2,6.49,6.81,19.66,8.86,26.31,2.53,8.21,2.57,21.45-5,25.35C27.35,62.48,15.64,62.6,15.12,62.27Z"/><path class="cls-1" d="M28,3c3.54-1.67,7.32-1.73,11.57-1.42a4,4,0,0,0-3.14-1C32.69.47,28.94,1,25.2.29,18.81-.86,14.46,1.44,11.65,7.49l-.05.09C10.43,9.8,9.51,14,8.94,16.51,6.55,27,7.28,37.51,8.21,48.05c.67,7.65,0,14.72-8.21,18.69A17,17,0,0,0,11.92,62c2.33-2,9-17.73,8.54-23-.45-5.51-2.4-11.1.38-16.3C22.25,20.09,18.91,14,17.93,10c.52.92,1.42,1.19,2.87.85a6.85,6.85,0,0,1,4.06.07c.8.31,1.08.21,1.22-.65a6.87,6.87,0,0,1,2.3-3.78C30.71,4.17,33.65,3,36.66,1.88c-3.36.18-6.47,1.5-9.78,2C27.05,3.27,27.58,3.17,28,3Z"/><path class="cls-4" d="M22.33,10.57a6.52,6.52,0,0,1-1.93.34,8.62,8.62,0,0,1-4.72-.56C13.8,9.24,13.16,5.8,14.73,5c2-1,2.86,3.19,4.47,4.57a5.9,5.9,0,0,0,3.13,1"/><path class="cls-5" d="M27.84,4A5.82,5.82,0,0,0,29.4,4l.5-.09a5,5,0,0,0,1.26-.35l1.95-.8,1.22-.48-.9.08c-2.18.48-4.32,1.2-6.55,1.56Z"/><path class="cls-2" d="M16.08,56.43l-1.65-6.24a27,27,0,0,1-.57-2.67l-.79-5.06a22.73,22.73,0,0,1-.29-3.68V27.11L13,28a14.43,14.43,0,0,1,.25,2.37l.09,3.79-.06,4.65a23.87,23.87,0,0,0,.25,3.68l.79,5.29c.11.71.24,1.43.39,2.14Z"/></g></g></svg>